<?xml version="1.0" encoding="UTF-8" standalone="no"?><!-- Generator: Gravit.io --><svg xmlns="http://www.w3.org/2000/svg" xmlns:xlink="http://www.w3.org/1999/xlink" style="isolation:isolate" viewBox="0 0 128 128" width="128pt" height="128pt"><defs><clipPath id="_clipPath_pCjq6kMGYFXk0pcSqxJopCYZ2dczi6EO"><rect width="128" height="128"/></clipPath></defs><g clip-path="url(#_clipPath_pCjq6kMGYFXk0pcSqxJopCYZ2dczi6EO)"><rect x="4" y="0" width="4" height="2" transform="matrix(1,0,0,1,0,0)" fill="rgb(0,0,0)"/><rect x="6" y="2" width="4" height="4" transform="matrix(1,0,0,1,0,0)" fill="rgb(0,0,0)"/><rect x="2" y="2" width="2" height="2" transform="matrix(1,0,0,1,0,0)" fill="rgb(0,0,0)"/><rect x="0" y="6" width="2" height="2" transform="matrix(1,0,0,1,0,0)" fill="rgb(0,0,0)"/><rect x="2" y="8" width="2" height="2" transform="matrix(1,0,0,1,0,0)" fill="rgb(0,0,0)"/><rect x="4" y="10" width="4" height="2" transform="matrix(1,0,0,1,0,0)" fill="rgb(0,0,0)"/><rect x="8" y="8" width="2" height="2" transform="matrix(1,0,0,1,0,0)" fill="rgb(0,0,0)"/><rect x="10" y="6" width="2" height="2" transform="matrix(1,0,0,1,0,0)" fill="rgb(0,0,0)"/><rect x="12" y="2" width="104" height="2" transform="matrix(1,0,0,1,0,0)" fill="rgb(0,0,0)"/><path d=" M 114 8 L 114 6 L 14 6 L 14 8 L 12 8 L 12 10 L 116 10 L 116 8 L 114 8 Z " fill-rule="evenodd" fill="rgb(0,0,0)"/><rect x="10" y="10" width="2" height="2" transform="matrix(1,0,0,1,0,0)" fill="rgb(0,0,0)"/><rect x="8" y="12" width="2" height="2" transform="matrix(1,0,0,1,0,0)" fill="rgb(0,0,0)"/><rect x="6" y="14" width="2" height="100" transform="matrix(1,0,0,1,0,0)" fill="rgb(0,0,0)"/><rect x="124" y="14" width="2" height="100" transform="matrix(1,0,0,1,0,0)" fill="rgb(0,0,0)"/><rect x="2" y="14" width="2" height="100" transform="matrix(1,0,0,1,0,0)" fill="rgb(0,0,0)"/><rect x="120" y="14" width="2" height="100" transform="matrix(1,0,0,1,0,0)" fill="rgb(0,0,0)"/><path d=" M 10 6 L 6 6 L 2 6 L 2 6 L 2 6 L 2 6 L 2 6 L 2 8 L 0 8 L 0 6 L 0 4 L 0 4 L 0 4 L 2 4 L 2 2 L 4 2 L 4 4 L 4 4 L 6 4 L 6 4 L 6 2 L 4 2 L 4 0 L 4 0 L 8 0 L 8 2 L 10 2 L 10 4 L 12 4 L 12 6 L 12 8 L 10 8 L 10 6 Z  M 4 12 L 4 12 L 4 12 L 4 12 L 4 12 L 4 12 L 4 12 L 4 14 L 6 14 L 6 12 L 8 12 L 8 10 L 4 10 L 4 12 L 4 12 L 4 12 Z  M 2 8 L 4 8 L 4 10 L 2 10 L 2 8 L 2 8 L 2 8 L 2 8 Z  M 8 8 L 10 8 L 10 10 L 8 10 L 8 8 L 8 8 Z " fill-rule="evenodd" fill="rgb(0,0,0)"/><rect x="118" y="12" width="2" height="2" transform="matrix(1,0,0,1,0,0)" fill="rgb(0,0,0)"/><rect x="116" y="10" width="2" height="2" transform="matrix(1,0,0,1,0,0)" fill="rgb(0,0,0)"/><path d=" M 4 116 L 4 116 L 4 118 L 6 118 L 6 120 L 4 120 L 4 118 L 4 118 L 2 118 L 2 120 L 0 120 L 0 120 L 0 122 L 0 122 L 0 124 L 2 124 L 2 122 L 2 122 L 2 122 L 2 122 L 6 122 L 10 122 L 10 122 L 10 122 L 10 124 L 12 124 L 12 122 L 12 122 L 12 120 L 10 120 L 10 118 L 8 118 L 8 116 L 6 116 L 6 114 L 4 114 L 4 116 Z  M 2 124 L 4 124 L 4 126 L 2 126 L 2 124 L 2 124 L 2 124 L 2 124 L 2 124 Z  M 4 126 L 8 126 L 8 128 L 4 128 L 4 126 L 4 126 L 4 126 L 4 126 Z  M 8 124 L 10 124 L 10 126 L 8 126 L 8 124 L 8 124 L 8 124 Z " fill-rule="evenodd" fill="rgb(0,0,0)"/><path d=" M 114 124 L 114 122 L 14 122 L 14 124 L 12 124 L 12 126 L 116 126 L 116 124 L 114 124 Z " fill-rule="evenodd" fill="rgb(0,0,0)"/><rect x="12" y="118" width="104" height="2" transform="matrix(1,0,0,1,0,0)" fill="rgb(0,0,0)"/><rect x="8" y="114" width="2" height="2" transform="matrix(1,0,0,1,0,0)" fill="rgb(0,0,0)"/><rect x="10" y="116" width="2" height="2" transform="matrix(1,0,0,1,0,0)" fill="rgb(0,0,0)"/><rect x="116" y="116" width="2" height="2" transform="matrix(1,0,0,1,0,0)" fill="rgb(0,0,0)"/><rect x="118" y="114" width="2" height="2" transform="matrix(1,0,0,1,0,0)" fill="rgb(0,0,0)"/><path d=" M 122 116 L 120 116 L 120 116 L 120 118 L 122 118 L 122 120 L 120 120 L 120 118 L 118 118 L 118 120 L 116 120 L 116 120 L 116 122 L 116 124 L 118 124 L 118 122 L 118 122 L 118 122 L 118 122 L 122 122 L 126 122 L 126 122 L 126 124 L 128 124 L 128 122 L 128 120 L 126 120 L 126 118 L 124 118 L 124 116 L 124 114 L 122 114 L 122 116 Z  M 118 124 L 120 124 L 120 126 L 118 126 L 118 124 L 118 124 L 118 124 L 118 124 L 118 124 L 118 124 Z  M 120 126 L 124 126 L 124 128 L 120 128 L 120 126 L 120 126 L 120 126 L 120 126 Z  M 124 124 L 126 124 L 126 126 L 124 126 L 124 124 L 124 124 L 124 124 Z " fill-rule="evenodd" fill="rgb(0,0,0)"/><path d=" M 124 12 L 124 10 L 120 10 L 120 10 L 120 10 L 120 10 L 120 12 L 122 12 L 122 14 L 124 14 L 124 12 Z  M 126 6 L 122 6 L 118 6 L 118 6 L 118 6 L 118 6 L 118 8 L 116 8 L 116 6 L 116 4 L 116 4 L 118 4 L 118 2 L 120 2 L 120 4 L 122 4 L 122 2 L 120 2 L 120 0 L 120 0 L 124 0 L 124 2 L 126 2 L 126 4 L 128 4 L 128 6 L 128 8 L 126 8 L 126 6 L 126 6 Z  M 118 8 L 120 8 L 120 10 L 118 10 L 118 8 L 118 8 L 118 8 L 118 8 L 118 8 L 118 8 Z  M 124 8 L 126 8 L 126 10 L 124 10 L 124 8 L 124 8 L 124 8 Z " fill-rule="evenodd" fill="rgb(0,0,0)"/></g></svg>