<?xml version="1.0" encoding="UTF-8" standalone="no"?>
<!DOCTYPE svg PUBLIC "-//W3C//DTD SVG 1.1//EN" "http://www.w3.org/Graphics/SVG/1.1/DTD/svg11.dtd">
<svg version="1.1" xmlns="http://www.w3.org/2000/svg" xmlns:xlink="http://www.w3.org/1999/xlink" preserveAspectRatio="xMidYMid meet" viewBox="0 0 128 128" width="128" height="128"><defs><path d="M2.31 0L4.61 0L4.61 1.15L2.31 1.15L2.31 0Z" id="a3HNw4GH9M"></path><path d="M3.46 1.14L5.77 1.14L5.77 2.29L3.46 2.29L3.46 1.14Z" id="a9DaWdS35j"></path><path d="M1.15 1.15L2.31 1.15L2.31 2.3L1.15 2.3L1.15 1.15Z" id="b1icbIYpQA"></path><path d="M0 2.3L6.92 2.3L6.92 3.44L0 3.44L0 2.3Z" id="bz7UaZ4TI"></path><path d="M0 3.44L1.15 3.44L1.15 4.59L0 4.59L0 3.44Z" id="a8K5euGJL"></path><path d="M5.77 3.44L6.92 3.44L6.92 4.59L5.77 4.59L5.77 3.44Z" id="cfs13EFRq"></path><path d="M4.61 4.59L5.77 4.59L5.77 5.74L4.61 5.74L4.61 4.59Z" id="b3YUXAVXMt"></path><path d="M2.31 5.74L4.61 5.74L4.61 6.89L2.31 6.89L2.31 5.74Z" id="ePDRotZSd"></path><path d="M1.15 4.59L2.31 4.59L2.31 5.74L1.15 5.74L1.15 4.59Z" id="g3sTF1VwNf"></path><path d="M6.92 1.15L121 1.15L121 2.3L6.92 2.3L6.92 1.15Z" id="cjjXhGM8E"></path><path d="M6.92 4.59L8.07 4.59L8.07 5.74L6.92 5.74L6.92 4.59Z" id="dmJuxEu41"></path><path d="M5.77 5.74L6.92 5.74L6.92 6.89L5.77 6.89L5.77 5.74Z" id="dFBlKQm6i"></path><path d="M4.61 6.89L5.77 6.89L5.77 8.03L4.61 8.03L4.61 6.89Z" id="a48rbk0Mii"></path><path d="M2.31 8.03L3.46 8.03L3.46 6.89L2.31 6.89L2.31 8.03Z" id="aaUY0dAg1"></path><path d="M1.15 8.04L2.31 8.04L2.31 120.04L1.15 120.04L1.15 8.04Z" id="d9nEEhvpv"></path><path d="M3.46 8.04L4.61 8.04L4.61 120.04L3.46 120.04L3.46 8.04Z" id="f2Vsx40iHS"></path><path d="M2.29 121.15L4.59 121.15L4.59 122.3L2.29 122.3L2.29 121.15Z" id="d1q2jOU0TS"></path><path d="M3.45 122.3L5.74 122.3L5.74 123.45L3.45 123.45L3.45 122.3Z" id="a6UHsUENHe"></path><path d="M1.15 122.3L2.29 122.3L2.29 123.46L1.15 123.46L1.15 122.3Z" id="a2GQfnGn8T"></path><path d="M0 123.46L6.89 123.46L6.89 124.61L0 124.61L0 123.46Z" id="cQC7ghLFV"></path><path d="M5.74 122.3L5.74 121.15L6.89 121.15L6.89 122.3L5.74 122.3Z" id="bQTrgADMz"></path><path d="M0 124.61L1.15 124.61L1.15 125.76L0 125.76L0 124.61Z" id="c70benKTv"></path><path d="M5.74 124.61L6.89 124.61L6.89 125.76L5.74 125.76L5.74 124.61Z" id="a2FDuHctDX"></path><path d="M4.59 125.76L5.74 125.76L5.74 126.92L4.59 126.92L4.59 125.76Z" id="ccstSjWwt"></path><path d="M2.29 126.92L4.59 126.92L4.59 128.07L2.29 128.07L2.29 126.92Z" id="a5ox0160O"></path><path d="M1.15 125.76L2.29 125.76L2.29 126.92L1.15 126.92L1.15 125.76Z" id="b8Ot7Wx8O"></path><path d="M4.59 121.15L4.59 120L5.74 120L5.74 121.15L4.59 121.15Z" id="d3h9AC20S5"></path><path d="M6.89 123.46L6.89 122.3L8.03 122.3L8.03 123.46L6.89 123.46Z" id="fjo7ebA10"></path><path d="M2.27 120L3.42 120L3.42 121.15L2.27 121.15L2.27 120Z" id="f2AknEpWJJ"></path><path d="M125.69 0L123.39 0L123.39 1.15L125.69 1.15L125.69 0Z" id="eHmz8k7D"></path><path d="M124.54 1.14L122.23 1.14L122.23 2.29L124.54 2.29L124.54 1.14Z" id="eVd8T6j5n"></path><path d="M126.85 1.15L125.69 1.15L125.69 2.3L126.85 2.3L126.85 1.15Z" id="b7S40F8Bsu"></path><path d="M128 2.3L121.08 2.3L121.08 3.44L128 3.44L128 2.3Z" id="c9WUnie5XI"></path><path d="M128 3.44L126.85 3.44L126.85 4.59L128 4.59L128 3.44Z" id="a3m3QXlKG5"></path><path d="M122.23 3.44L121.08 3.44L121.08 4.59L122.23 4.59L122.23 3.44Z" id="bdONDEnh5"></path><path d="M123.39 4.59L122.23 4.59L122.23 5.74L123.39 5.74L123.39 4.59Z" id="a3VHqzL00c"></path><path d="M125.69 5.74L123.39 5.74L123.39 6.89L125.69 6.89L125.69 5.74Z" id="c2X4uQSxX"></path><path d="M126.85 4.59L125.69 4.59L125.69 5.74L126.85 5.74L126.85 4.59Z" id="a5vqQAJ6ZL"></path><path d="M119.92 3.45L8 3.45L8 5.74L119.92 5.74L119.92 3.45Z" id="elXlBctRD"></path><path d="M121.08 4.59L119.93 4.59L119.93 5.74L121.08 5.74L121.08 4.59Z" id="anoQ38357"></path><path d="M122.23 5.74L121.08 5.74L121.08 6.89L122.23 6.89L122.23 5.74Z" id="a27YE6fo4S"></path><path d="M123.39 6.89L122.23 6.89L122.23 8.03L123.39 8.03L123.39 6.89Z" id="b10DfhLk8H"></path><path d="M125.69 8.03L124.54 8.03L124.54 6.89L125.69 6.89L125.69 8.03Z" id="cm5A3pj4N"></path><path d="M126.85 8.04L125.69 8.04L125.69 120.04L126.85 120.04L126.85 8.04Z" id="d3dxBgnn8"></path><path d="M124.54 8.04L123.39 8.04L123.39 120.04L124.54 120.04L124.54 8.04Z" id="caSD7owuH"></path><path d="M125.71 121.15L123.41 121.15L123.41 122.3L125.71 122.3L125.71 121.15Z" id="c3mf8mxqMV"></path><path d="M124.55 122.3L122.26 122.3L122.26 123.45L124.55 123.45L124.55 122.3Z" id="a1sjNHZRQ"></path><path d="M126.85 122.3L125.71 122.3L125.71 123.46L126.85 123.46L126.85 122.3Z" id="c1yLqVBhkh"></path><path d="M128 123.46L121.11 123.46L121.11 124.61L128 124.61L128 123.46Z" id="b9Oaa6shlB"></path><path d="M122.26 122.3L122.26 121.15L121.11 121.15L121.11 122.3L122.26 122.3Z" id="f7Br36FMNn"></path><path d="M128 124.61L126.85 124.61L126.85 125.76L128 125.76L128 124.61Z" id="a1lfZ6vHUy"></path><path d="M122.26 124.61L121.11 124.61L121.11 125.76L122.26 125.76L122.26 124.61Z" id="a2ibKyK5hw"></path><path d="M123.41 125.76L122.26 125.76L122.26 126.92L123.41 126.92L123.41 125.76Z" id="b6VUPD6W8w"></path><path d="M125.71 126.92L123.41 126.92L123.41 128.07L125.71 128.07L125.71 126.92Z" id="coLsbGQtF"></path><path d="M126.85 125.76L125.71 125.76L125.71 126.92L126.85 126.92L126.85 125.76Z" id="e1AnNKtEzP"></path><path d="M123.41 121.15L123.41 120L122.26 120L122.26 121.15L123.41 121.15Z" id="d6xCqaC7"></path><path d="M121.11 123.46L121.11 122.3L119.97 122.3L119.97 123.46L121.11 123.46Z" id="cxBiRB8JL"></path><path d="M7 127L7 125.84L121 125.84L121 127L7 127Z" id="d6c7EWO1o"></path><path d="M125.73 120L124.58 120L124.58 121.15L125.73 121.15L125.73 120Z" id="alMtsPnVz"></path><path d="M8 125.81L8 124.65L120 124.65L120 125.81L8 125.81Z" id="eqolxM8Kf"></path><path d="M8 123.46L8 122.3L120 122.3L120 123.46L8 123.46Z" id="a2Qt5LqJo"></path></defs><g><g><g><use xlink:href="#a3HNw4GH9M" opacity="1" fill="#000000" fill-opacity="1"></use></g><g><use xlink:href="#a9DaWdS35j" opacity="1" fill="#000000" fill-opacity="1"></use></g><g><use xlink:href="#b1icbIYpQA" opacity="1" fill="#000000" fill-opacity="1"></use></g><g><use xlink:href="#bz7UaZ4TI" opacity="1" fill="#000000" fill-opacity="1"></use></g><g><use xlink:href="#a8K5euGJL" opacity="1" fill="#000000" fill-opacity="1"></use></g><g><use xlink:href="#cfs13EFRq" opacity="1" fill="#000000" fill-opacity="1"></use></g><g><use xlink:href="#b3YUXAVXMt" opacity="1" fill="#000000" fill-opacity="1"></use></g><g><use xlink:href="#ePDRotZSd" opacity="1" fill="#000000" fill-opacity="1"></use></g><g><use xlink:href="#g3sTF1VwNf" opacity="1" fill="#000000" fill-opacity="1"></use></g><g><use xlink:href="#cjjXhGM8E" opacity="1" fill="#000000" fill-opacity="1"></use></g><g><use xlink:href="#dmJuxEu41" opacity="1" fill="#000000" fill-opacity="1"></use></g><g><use xlink:href="#dFBlKQm6i" opacity="1" fill="#000000" fill-opacity="1"></use></g><g><use xlink:href="#a48rbk0Mii" opacity="1" fill="#000000" fill-opacity="1"></use></g><g><use xlink:href="#aaUY0dAg1" opacity="1" fill="#000000" fill-opacity="1"></use></g><g><use xlink:href="#d9nEEhvpv" opacity="1" fill="#000000" fill-opacity="1"></use></g><g><use xlink:href="#f2Vsx40iHS" opacity="1" fill="#000000" fill-opacity="1"></use></g><g><use xlink:href="#d1q2jOU0TS" opacity="1" fill="#000000" fill-opacity="1"></use></g><g><use xlink:href="#a6UHsUENHe" opacity="1" fill="#000000" fill-opacity="1"></use></g><g><use xlink:href="#a2GQfnGn8T" opacity="1" fill="#000000" fill-opacity="1"></use></g><g><use xlink:href="#cQC7ghLFV" opacity="1" fill="#000000" fill-opacity="1"></use></g><g><use xlink:href="#bQTrgADMz" opacity="1" fill="#000000" fill-opacity="1"></use></g><g><use xlink:href="#c70benKTv" opacity="1" fill="#000000" fill-opacity="1"></use></g><g><use xlink:href="#a2FDuHctDX" opacity="1" fill="#000000" fill-opacity="1"></use></g><g><use xlink:href="#ccstSjWwt" opacity="1" fill="#000000" fill-opacity="1"></use></g><g><use xlink:href="#a5ox0160O" opacity="1" fill="#000000" fill-opacity="1"></use></g><g><use xlink:href="#b8Ot7Wx8O" opacity="1" fill="#000000" fill-opacity="1"></use></g><g><use xlink:href="#d3h9AC20S5" opacity="1" fill="#000000" fill-opacity="1"></use></g><g><use xlink:href="#fjo7ebA10" opacity="1" fill="#000000" fill-opacity="1"></use></g><g><use xlink:href="#f2AknEpWJJ" opacity="1" fill="#000000" fill-opacity="1"></use></g><g><use xlink:href="#eHmz8k7D" opacity="1" fill="#000000" fill-opacity="1"></use></g><g><use xlink:href="#eVd8T6j5n" opacity="1" fill="#000000" fill-opacity="1"></use></g><g><use xlink:href="#b7S40F8Bsu" opacity="1" fill="#000000" fill-opacity="1"></use></g><g><use xlink:href="#c9WUnie5XI" opacity="1" fill="#000000" fill-opacity="1"></use></g><g><use xlink:href="#a3m3QXlKG5" opacity="1" fill="#000000" fill-opacity="1"></use></g><g><use xlink:href="#bdONDEnh5" opacity="1" fill="#000000" fill-opacity="1"></use></g><g><use xlink:href="#a3VHqzL00c" opacity="1" fill="#000000" fill-opacity="1"></use></g><g><use xlink:href="#c2X4uQSxX" opacity="1" fill="#000000" fill-opacity="1"></use></g><g><use xlink:href="#a5vqQAJ6ZL" opacity="1" fill="#000000" fill-opacity="1"></use></g><g><use xlink:href="#elXlBctRD" opacity="1" fill="#000000" fill-opacity="1"></use></g><g><use xlink:href="#anoQ38357" opacity="1" fill="#000000" fill-opacity="1"></use></g><g><use xlink:href="#a27YE6fo4S" opacity="1" fill="#000000" fill-opacity="1"></use></g><g><use xlink:href="#b10DfhLk8H" opacity="1" fill="#000000" fill-opacity="1"></use></g><g><use xlink:href="#cm5A3pj4N" opacity="1" fill="#000000" fill-opacity="1"></use></g><g><use xlink:href="#d3dxBgnn8" opacity="1" fill="#000000" fill-opacity="1"></use></g><g><use xlink:href="#caSD7owuH" opacity="1" fill="#000000" fill-opacity="1"></use></g><g><use xlink:href="#c3mf8mxqMV" opacity="1" fill="#000000" fill-opacity="1"></use></g><g><use xlink:href="#a1sjNHZRQ" opacity="1" fill="#000000" fill-opacity="1"></use></g><g><use xlink:href="#c1yLqVBhkh" opacity="1" fill="#000000" fill-opacity="1"></use></g><g><use xlink:href="#b9Oaa6shlB" opacity="1" fill="#000000" fill-opacity="1"></use></g><g><use xlink:href="#f7Br36FMNn" opacity="1" fill="#000000" fill-opacity="1"></use></g><g><use xlink:href="#a1lfZ6vHUy" opacity="1" fill="#000000" fill-opacity="1"></use></g><g><use xlink:href="#a2ibKyK5hw" opacity="1" fill="#000000" fill-opacity="1"></use></g><g><use xlink:href="#b6VUPD6W8w" opacity="1" fill="#000000" fill-opacity="1"></use></g><g><use xlink:href="#coLsbGQtF" opacity="1" fill="#000000" fill-opacity="1"></use></g><g><use xlink:href="#e1AnNKtEzP" opacity="1" fill="#000000" fill-opacity="1"></use></g><g><use xlink:href="#d6xCqaC7" opacity="1" fill="#000000" fill-opacity="1"></use></g><g><use xlink:href="#cxBiRB8JL" opacity="1" fill="#000000" fill-opacity="1"></use></g><g><use xlink:href="#d6c7EWO1o" opacity="1" fill="#000000" fill-opacity="1"></use></g><g><use xlink:href="#alMtsPnVz" opacity="1" fill="#000000" fill-opacity="1"></use></g><g><use xlink:href="#eqolxM8Kf" opacity="1" fill="#000000" fill-opacity="1"></use></g><g><use xlink:href="#a2Qt5LqJo" opacity="1" fill="#000000" fill-opacity="1"></use></g></g></g></svg>